# xmcd
#
# Track frame offsets:
#	150
#	13715
#	25755
#	39455
#	54700
#	72355
#	91527
#	103425
#	119102
#	131132
#	148095
#	159455
#	173492
#	188275
#
# Disc length: 2672 seconds
#
# Revision: 2
# Processed by: cddbd v1.5.2PL0 Copyright (c) Steve Scherf et al.
# Submitted via: EasyCDDAExtractor 11.5.3.1
#
DISCID=bd0a6e0e
DTITLE=Leif Kerstein and Winchesters - Good Times
DYEAR=2002
DGENRE=Country
TTITLE0=Six Days On The Road
TTITLE1=Sombody Stole My Song
TTITLE2=I Left My Heart
TTITLE3=Swinging Doors
TTITLE4=He'll Have To Go
TTITLE5=Sweet Loving Tonight
TTITLE6=Ring Og Fire
TTITLE7=All I Have To Offer You Is Me
TTITLE8=Pick Me Up In You Way Down
TTITLE9=I Belive In You
TTITLE10=Heartaches By The Number
TTITLE11=You Keep Me Hanging On
TTITLE12=Fast Train
TTITLE13=Treat Me Nice
EXTD=
EXTT0=
EXTT1=
EXTT2=
EXTT3=
EXTT4=
EXTT5=
EXTT6=
EXTT7=
EXTT8=
EXTT9=
EXTT10=
EXTT11=
EXTT12=
EXTT13=
PLAYORDER=
